<svg xmlns="http://www.w3.org/2000/svg" xmlns:xlink="http://www.w3.org/1999/xlink" fill="none" version="1.1" width="89" height="101" viewBox="0 0 89 101"><defs><linearGradient x1="0" y1="0" x2="0.8766556057729555" y2="0.9728252467590252" id="master_svg0_14_1279"><stop offset="0%" stop-color="#1D9EFD" stop-opacity="1"/><stop offset="100%" stop-color="#177DFB" stop-opacity="1"/></linearGradient><linearGradient x1="0.9832066893577576" y1="0.03262891620397568" x2="0.20633500180821776" y2="0.9978599836126492" id="master_svg1_3_6516"><stop offset="0%" stop-color="#22BB36" stop-opacity="1"/><stop offset="100%" stop-color="#1A8BFC" stop-opacity="1"/></linearGradient><linearGradient x1="0.9832066893577576" y1="0.03262891620397568" x2="0.8523081568766081" y2="0.95300747930882" id="master_svg2_3_6516"><stop offset="0%" stop-color="#22BB36" stop-opacity="1"/><stop offset="100%" stop-color="#1A8BFC" stop-opacity="1"/></linearGradient><linearGradient x1="0.9832066893577576" y1="0.03262891620397568" x2="0.47148144839064465" y2="1.0654026827946883" id="master_svg3_3_6516"><stop offset="0%" stop-color="#22BB36" stop-opacity="1"/><stop offset="100%" stop-color="#1A8BFC" stop-opacity="1"/></linearGradient></defs><g><g><g><path d="M8.4949818,39.37503803710938Q-7.229804,58.05384103710937,6.1530523,82.85154703710937L11.506139,67.07118603710938Q8.5786123,54.028221037109375,19.201147,41.30732303710937Q24.512421,34.94687303710937,42.286392,27.459250037109374C42.28717,27.428713037109375,42.288887,27.413636037109377,42.291439,27.413494037109373C42.391426,27.407911037109375,43.773403,50.358170037109375,40.27898,64.49479703710938C38.487206,71.74340403710937,33.254673,71.93272803710937,30.241919,75.12238703710938C27.229164,78.31204603710938,26.770767,85.14613303710938,27.565369,84.46179203710938C29.15457,83.09309403710938,45.477863,82.93708803710938,50.650608,67.07118603710938C53.554028,58.16579103710937,53.57692,43.803719037109374,53.5947,32.649216037109376C53.608597,23.930786137109376,53.61937,17.171888237109375,55,16.509613037109375Q24.219767,20.696239937109375,8.4949818,39.37503803710938Z" fill="#000000" fill-opacity="1"/><path d="M8.4949818,39.37503803710938Q-7.229804,58.05384103710937,6.1530523,82.85154703710937L11.506139,67.07118603710938Q8.5786123,54.028221037109375,19.201147,41.30732303710937Q24.512421,34.94687303710937,42.286392,27.459250037109374C42.28717,27.428713037109375,42.288887,27.413636037109377,42.291439,27.413494037109373C42.391426,27.407911037109375,43.773403,50.358170037109375,40.27898,64.49479703710938C38.487206,71.74340403710937,33.254673,71.93272803710937,30.241919,75.12238703710938C27.229164,78.31204603710938,26.770767,85.14613303710938,27.565369,84.46179203710938C29.15457,83.09309403710938,45.477863,82.93708803710938,50.650608,67.07118603710938C53.554028,58.16579103710937,53.57692,43.803719037109374,53.5947,32.649216037109376C53.608597,23.930786137109376,53.61937,17.171888237109375,55,16.509613037109375Q24.219767,20.696239937109375,8.4949818,39.37503803710938Z" fill="#FFFFFF" fill-opacity="1"/></g><g><path d="M20,87.50961303710938L29.7142849,83.96121603710938L37,37.509613037109375Q30.494899,48.235418037109376,26.2448983,60.73541403710938Q21.9948981,73.23541303710937,20,87.50961303710938Z" fill="#000000" fill-opacity="1"/><path d="M20,87.50961303710938L29.7142849,83.96121603710938L37,37.509613037109375Q30.494899,48.235418037109376,26.2448983,60.73541403710938Q21.9948981,73.23541303710937,20,87.50961303710938Z" fill="#FFFFFF" fill-opacity="1"/></g><g><path d="M3,89.50961303710938L14.806916,89.50961303710938Q16.284526,75.06096603710938,20.962793,63.351402037109374Q25.641064,51.64184103710937,36,37.509613037109375Q15.282125,55.921888037109376,10.9379358,67.22767103710937Q6.5937467000000005,78.53345103710937,3,89.50961303710938Z" fill="#000000" fill-opacity="1"/><path d="M3,89.50961303710938L14.806916,89.50961303710938Q16.284526,75.06096603710938,20.962793,63.351402037109374Q25.641064,51.64184103710937,36,37.509613037109375Q15.282125,55.921888037109376,10.9379358,67.22767103710937Q6.5937467000000005,78.53345103710937,3,89.50961303710938Z" fill="#FFFFFF" fill-opacity="1"/></g></g><g><g><path d="M3.2855101,40.89513L3.2855101,0.10668448L15.416073,0L59.940517,0C75.369484,1.7933272,86.972588,14.298899,86.972588,29.134607C86.972588,37.887383,82.933807,45.829094,76.453384,51.238403C84.021751,56.122322,89,64.408043,89,73.807686C89,88.609184,76.655785,100.64854,61.292114,100.99245L61.292114,101L60.616314,101L0,101.00001L3,89.5L59.940517,89.349716L59.940517,89.332657C60.165657,89.34166,60.390972,89.346146,60.616314,89.346146C69.573959,89.346146,76.835571,82.389336,76.835571,73.807686C76.835571,65.226036,69.573959,58.269226,60.616314,58.269226C60.390972,58.269226,60.165657,58.273735,59.940517,58.28273L59.940517,46.262196C68.586205,44.602215,74.808159,37.434513,74.808159,29.134613C74.808159,20.834715,68.586205,13.667008,59.940517,12.00703L59.940517,11.977563L15.337592,11.977563L15.416073,27.620531Q11.675181,30.109589,8.6144524,33.401573Q5.6660767,36.800217,3.2855101,40.89513Z" fill-rule="evenodd" fill="#FFFFFF" fill-opacity="1"/><path d="M3.2855101,40.89513L3.2855101,0.10668448L15.416073,0L59.940517,0C75.369484,1.7933272,86.972588,14.298899,86.972588,29.134607C86.972588,37.887383,82.933807,45.829094,76.453384,51.238403C84.021751,56.122322,89,64.408043,89,73.807686C89,88.609184,76.655785,100.64854,61.292114,100.99245L61.292114,101L60.616314,101L0,101.00001L3,89.5L59.940517,89.349716L59.940517,89.332657C60.165657,89.34166,60.390972,89.346146,60.616314,89.346146C69.573959,89.346146,76.835571,82.389336,76.835571,73.807686C76.835571,65.226036,69.573959,58.269226,60.616314,58.269226C60.390972,58.269226,60.165657,58.273735,59.940517,58.28273L59.940517,46.262196C68.586205,44.602215,74.808159,37.434513,74.808159,29.134613C74.808159,20.834715,68.586205,13.667008,59.940517,12.00703L59.940517,11.977563L15.337592,11.977563L15.416073,27.620531Q11.675181,30.109589,8.6144524,33.401573Q5.6660767,36.800217,3.2855101,40.89513Z" fill-rule="evenodd" fill="url(#master_svg0_14_1279)" fill-opacity="1"/></g><g><g><path d="M8.4949818,39.375036129760744Q-7.229804,58.05383912976074,6.1530523,82.85154512976074L11.506139,67.07118412976075Q8.5786123,54.02821912976074,19.201147,41.30732112976074Q24.512421,34.94687112976074,42.286392,27.45924812976074C42.28717,27.428711129760742,42.288887,27.413634129760744,42.291439,27.41349212976074C42.391426,27.407909129760743,43.773403,50.35816812976074,40.27898,64.49479512976075C38.487206,71.74340212976074,33.254673,71.93272612976074,30.241919,75.12238512976074C27.229164,78.31204412976075,26.770767,85.14613112976075,27.565369,84.46179012976074C29.15457,83.09309212976075,45.477863,82.93708612976074,50.650608,67.07118412976075C53.554028,58.16578912976074,53.57692,43.80371712976074,53.5947,32.64921412976074C53.608597,23.930784229760743,53.61937,17.171886329760742,55,16.509611129760742Q24.219767,20.696238029760742,8.4949818,39.375036129760744Z" fill="#000000" fill-opacity="1"/><path d="M8.4949818,39.375036129760744Q-7.229804,58.05383912976074,6.1530523,82.85154512976074L11.506139,67.07118412976075Q8.5786123,54.02821912976074,19.201147,41.30732112976074Q24.512421,34.94687112976074,42.286392,27.45924812976074C42.28717,27.428711129760742,42.288887,27.413634129760744,42.291439,27.41349212976074C42.391426,27.407909129760743,43.773403,50.35816812976074,40.27898,64.49479512976075C38.487206,71.74340212976074,33.254673,71.93272612976074,30.241919,75.12238512976074C27.229164,78.31204412976075,26.770767,85.14613112976075,27.565369,84.46179012976074C29.15457,83.09309212976075,45.477863,82.93708612976074,50.650608,67.07118412976075C53.554028,58.16578912976074,53.57692,43.80371712976074,53.5947,32.64921412976074C53.608597,23.930784229760743,53.61937,17.171886329760742,55,16.509611129760742Q24.219767,20.696238029760742,8.4949818,39.375036129760744Z" fill="url(#master_svg1_3_6516)" fill-opacity="1"/></g><g><path d="M20,87.50961112976074L29.7142849,83.96121412976075L37,37.50961112976074Q30.494899,48.23541612976074,26.2448983,60.735412129760746Q21.9948981,73.23541112976073,20,87.50961112976074Z" fill="#000000" fill-opacity="1"/><path d="M20,87.50961112976074L29.7142849,83.96121412976075L37,37.50961112976074Q30.494899,48.23541612976074,26.2448983,60.735412129760746Q21.9948981,73.23541112976073,20,87.50961112976074Z" fill="url(#master_svg2_3_6516)" fill-opacity="1"/></g><g><path d="M3,89.50961112976074L15,89.49999812976074Q16.284526,75.06096412976075,20.962793,63.35140012976074Q25.641064,51.64183912976074,36,37.50961112976074Q15.282125,55.92188612976074,10.9379358,67.22766912976074Q6.5937467000000005,78.53344912976074,3,89.50961112976074Z" fill="#000000" fill-opacity="1"/><path d="M3,89.50961112976074L15,89.49999812976074Q16.284526,75.06096412976075,20.962793,63.35140012976074Q25.641064,51.64183912976074,36,37.50961112976074Q15.282125,55.92188612976074,10.9379358,67.22766912976074Q6.5937467000000005,78.53344912976074,3,89.50961112976074Z" fill="url(#master_svg3_3_6516)" fill-opacity="1"/></g></g></g></g></svg>