<svg xmlns="http://www.w3.org/2000/svg" xmlns:xlink="http://www.w3.org/1999/xlink" fill="none" version="1.1" width="34.73876953125" height="40" viewBox="0 0 34.73876953125 40"><g><g><g><path d="M3.3157835,15.594075231506348Q-2.8219559,22.99162173150635,2.4016755,32.812495731506345L4.491106,26.56284773150635Q3.3484263,21.397315731506346,7.4946418,16.35933783150635Q9.5677519,13.840346331506348,16.505335,10.874951331506349C16.50564,10.862855431506347,16.50631,10.856884931506347,16.507305,10.856830131506348C16.546337,10.854681931506349,17.085743,19.943849731506347,15.721796,25.54249473150635C15.022427,28.413231731506347,12.980051,28.48820973150635,11.804104,29.751442731506348C10.628159,31.01467373150635,10.449236,33.72124373150635,10.759387,33.45021573150635C11.379687,32.90815873150635,17.751038,32.84637373150635,19.770077,26.56284773150635C20.903347,23.03595673150635,20.912283,17.348005731506348,20.919222,12.930380331506347C20.924646,9.477537831506348,20.928852,6.800747871506347,21.467743,6.538460731506348Q9.4535227,8.196530931506349,3.3157835,15.594075231506348Z" fill="#FFFFFF" fill-opacity="1"/><path d="M3.3157835,15.594075231506348Q-2.8219559,22.99162173150635,2.4016755,32.812495731506345L4.491106,26.56284773150635Q3.3484263,21.397315731506346,7.4946418,16.35933783150635Q9.5677519,13.840346331506348,16.505335,10.874951331506349C16.50564,10.862855431506347,16.50631,10.856884931506347,16.507305,10.856830131506348C16.546337,10.854681931506349,17.085743,19.943849731506347,15.721796,25.54249473150635C15.022427,28.413231731506347,12.980051,28.48820973150635,11.804104,29.751442731506348C10.628159,31.01467373150635,10.449236,33.72124373150635,10.759387,33.45021573150635C11.379687,32.90815873150635,17.751038,32.84637373150635,19.770077,26.56284773150635C20.903347,23.03595673150635,20.912283,17.348005731506348,20.919222,12.930380331506347C20.924646,9.477537831506348,20.928852,6.800747871506347,21.467743,6.538460731506348Q9.4535227,8.196530931506349,3.3157835,15.594075231506348Z" fill="#FFFFFF" fill-opacity="1"/></g><g><path d="M7.806451797485352,34.65727427392578L11.59815669748535,33.25196627392578L14.441935997485352,14.855293273925781Q11.902847797485352,19.103136973925782,10.243976597485352,24.05362987392578Q8.585105597485352,29.004124273925783,7.806451797485352,34.65727427392578Z" fill="#FFFFFF" fill-opacity="1"/><path d="M7.806451797485352,34.65727427392578L11.59815669748535,33.25196627392578L14.441935997485352,14.855293273925781Q11.902847797485352,19.103136973925782,10.243976597485352,24.05362987392578Q8.585105597485352,29.004124273925783,7.806451797485352,34.65727427392578Z" fill="#FFFFFF" fill-opacity="1"/></g><g><path d="M1.1709678173065186,35.44935427392578L5.779474017306518,35.44935427392578Q6.356218617306519,29.72711627392578,8.18225221730652,25.08966527392578Q10.008287217306519,20.45221517392578,14.051613817306519,14.855293273925781Q5.964958917306519,22.147283573925783,4.269323617306519,26.62482027392578Q2.573688417306519,31.10235827392578,1.1709678173065186,35.44935427392578Z" fill="#FFFFFF" fill-opacity="1"/><path d="M1.1709678173065186,35.44935427392578L5.779474017306518,35.44935427392578Q6.356218617306519,29.72711627392578,8.18225221730652,25.08966527392578Q10.008287217306519,20.45221517392578,14.051613817306519,14.855293273925781Q5.964958917306519,22.147283573925783,4.269323617306519,26.62482027392578Q2.573688417306519,31.10235827392578,1.1709678173065186,35.44935427392578Z" fill="#FFFFFF" fill-opacity="1"/></g></g><g><g><path d="M1.2824087,16.196093L1.2824087,0.042251278L6.0172415,0L23.396137,0C29.418411,0.71022862,33.947365,5.6629305,33.947365,11.538459C33.947365,15.004905,32.370941,18.150137,29.841484,20.292437C32.795589,22.226664,34.738708,25.508137,34.738708,29.230768C34.738708,35.092747,29.920483,39.860809,23.923695,39.997009L23.923695,40L23.659916,40L0,40.000004L1.1709678,35.445545L23.396137,35.386024L23.396137,35.379272C23.484015,35.382835,23.57196,35.384613,23.659916,35.384613C27.156288,35.384613,29.99066,32.62944,29.99066,29.230768C29.99066,25.832094,27.156288,23.076921,23.659916,23.076921C23.57196,23.076921,23.484015,23.078707,23.396137,23.08227L23.396137,18.321663C26.770744,17.664244,29.199314,14.825549,29.199314,11.538461C29.199314,8.2513723,26.770744,5.4126768,23.396137,4.7552595L23.396137,4.7435894L5.9866085,4.7435894L6.0172415,10.938825Q4.5570869,11.924589,3.3624153,13.228346Q2.2115977,14.574344,1.2824087,16.196093Z" fill-rule="evenodd" fill="#FFFFFF" fill-opacity="1"/><path d="M1.2824087,16.196093L1.2824087,0.042251278L6.0172415,0L23.396137,0C29.418411,0.71022862,33.947365,5.6629305,33.947365,11.538459C33.947365,15.004905,32.370941,18.150137,29.841484,20.292437C32.795589,22.226664,34.738708,25.508137,34.738708,29.230768C34.738708,35.092747,29.920483,39.860809,23.923695,39.997009L23.923695,40L23.659916,40L0,40.000004L1.1709678,35.445545L23.396137,35.386024L23.396137,35.379272C23.484015,35.382835,23.57196,35.384613,23.659916,35.384613C27.156288,35.384613,29.99066,32.62944,29.99066,29.230768C29.99066,25.832094,27.156288,23.076921,23.659916,23.076921C23.57196,23.076921,23.484015,23.078707,23.396137,23.08227L23.396137,18.321663C26.770744,17.664244,29.199314,14.825549,29.199314,11.538461C29.199314,8.2513723,26.770744,5.4126768,23.396137,4.7552595L23.396137,4.7435894L5.9866085,4.7435894L6.0172415,10.938825Q4.5570869,11.924589,3.3624153,13.228346Q2.2115977,14.574344,1.2824087,16.196093Z" fill-rule="evenodd" fill="#FFFFFF" fill-opacity="1"/></g><g><g><path d="M3.3157835,15.59407475466919Q-2.8219559,22.99162125466919,2.4016755,32.81249525466919L4.491106,26.56284725466919Q3.3484263,21.397315254669188,7.4946418,16.35933735466919Q9.5677519,13.84034585466919,16.505335,10.87495085466919C16.50564,10.862854954669189,16.50631,10.856884454669189,16.507305,10.85682965466919C16.546337,10.85468145466919,17.085743,19.94384925466919,15.721796,25.54249425466919C15.022427,28.41323125466919,12.980051,28.48820925466919,11.804104,29.75144225466919C10.628159,31.01467325466919,10.449236,33.72124325466919,10.759387,33.45021525466919C11.379687,32.90815825466919,17.751038,32.84637325466919,19.770077,26.56284725466919C20.903347,23.03595625466919,20.912283,17.34800525466919,20.919222,12.930379854669189C20.924646,9.47753735466919,20.928852,6.800747394669189,21.467743,6.5384602546691895Q9.4535227,8.19653045466919,3.3157835,15.59407475466919Z" fill="#FFFFFF" fill-opacity="1"/><path d="M3.3157835,15.59407475466919Q-2.8219559,22.99162125466919,2.4016755,32.81249525466919L4.491106,26.56284725466919Q3.3484263,21.397315254669188,7.4946418,16.35933735466919Q9.5677519,13.84034585466919,16.505335,10.87495085466919C16.50564,10.862854954669189,16.50631,10.856884454669189,16.507305,10.85682965466919C16.546337,10.85468145466919,17.085743,19.94384925466919,15.721796,25.54249425466919C15.022427,28.41323125466919,12.980051,28.48820925466919,11.804104,29.75144225466919C10.628159,31.01467325466919,10.449236,33.72124325466919,10.759387,33.45021525466919C11.379687,32.90815825466919,17.751038,32.84637325466919,19.770077,26.56284725466919C20.903347,23.03595625466919,20.912283,17.34800525466919,20.919222,12.930379854669189C20.924646,9.47753735466919,20.928852,6.800747394669189,21.467743,6.5384602546691895Q9.4535227,8.19653045466919,3.3157835,15.59407475466919Z" fill="#FFFFFF" fill-opacity="1"/></g><g><path d="M7.806451797485352,34.65727379708862L11.59815669748535,33.25196579708862L14.441935997485352,14.855292797088623Q11.902847797485352,19.103136497088624,10.243976597485352,24.05362939708862Q8.585105597485352,29.004123797088624,7.806451797485352,34.65727379708862Z" fill="#FFFFFF" fill-opacity="1"/><path d="M7.806451797485352,34.65727379708862L11.59815669748535,33.25196579708862L14.441935997485352,14.855292797088623Q11.902847797485352,19.103136497088624,10.243976597485352,24.05362939708862Q8.585105597485352,29.004123797088624,7.806451797485352,34.65727379708862Z" fill="#FFFFFF" fill-opacity="1"/></g><g><path d="M1.1709678173065186,35.44935379708862L5.854839117306518,35.445546797088625Q6.356218617306519,29.727115797088622,8.18225221730652,25.089664797088624Q10.008287217306519,20.45221469708862,14.051613817306519,14.855292797088623Q5.964958917306519,22.147283097088625,4.269323617306519,26.624819797088623Q2.573688417306519,31.102357797088622,1.1709678173065186,35.44935379708862Z" fill="#FFFFFF" fill-opacity="1"/><path d="M1.1709678173065186,35.44935379708862L5.854839117306518,35.445546797088625Q6.356218617306519,29.727115797088622,8.18225221730652,25.089664797088624Q10.008287217306519,20.45221469708862,14.051613817306519,14.855292797088623Q5.964958917306519,22.147283097088625,4.269323617306519,26.624819797088623Q2.573688417306519,31.102357797088622,1.1709678173065186,35.44935379708862Z" fill="#FFFFFF" fill-opacity="1"/></g></g></g></g></svg>