<svg xmlns="http://www.w3.org/2000/svg" xmlns:xlink="http://www.w3.org/1999/xlink" fill="none" version="1.1" width="81" height="101" viewBox="0 0 81 101"><defs><linearGradient x1="0.5" y1="0" x2="0.5" y2="1" id="master_svg0_42_0719"><stop offset="0.7142857182770967%" stop-color="#0783DC" stop-opacity="1"/><stop offset="100%" stop-color="#21BCDB" stop-opacity="1"/></linearGradient><linearGradient x1="0.5" y1="0" x2="0.5" y2="1" id="master_svg1_42_0725"><stop offset="0%" stop-color="#9FCA1F" stop-opacity="1"/><stop offset="100%" stop-color="#28B35B" stop-opacity="1"/></linearGradient></defs><g><g><path d="M27.345804,44.517284223876956L42.309513,51.97971722387695Q44.543312,58.67015822387695,46.576424,65.36062622387695Q48.60952,72.05109022387695,50.441898,78.74155822387695Q48.486996,72.30840722387696,41.570206,67.16191122387696C34.653419,62.015404223876956,25.521057,58.93792322387695,17.912342,52.75170122387695C10.303627,46.565471223876955,7.5620255,39.45778322387695,7.5620255,32.42299622387695C7.5620255,20.210889223876954,15.861469,9.716653123876952,27.345804,7.407398223876953L25.560171,12.161886223876953C19.468107,14.607497723876953,15.447983,20.718634223876954,15.447983,27.533813223876955Q15.447983,36.62928722387696,27.345804,44.517284223876956ZM53.152699,16.21150302387695Q49.332939,10.421684023876953,43.04882,7.462443131876953L58.327862,7.462443131876953L58.327862,25.217886223876953Q56.972454,22.001322223876954,53.152699,16.21150302387695ZM22.918554,100.74283222387696L0,100.74283222387696L11.751499,71.02178622387694Q9.8963861,84.17753222387695,13.061113,91.60780722387695Q16.225842,99.03806722387695,22.918554,100.74283222387696Z" fill-rule="evenodd" fill="#333333" fill-opacity="1"/><path d="M27.345804,44.517284223876956L42.309513,51.97971722387695Q44.543312,58.67015822387695,46.576424,65.36062622387695Q48.60952,72.05109022387695,50.441898,78.74155822387695Q48.486996,72.30840722387696,41.570206,67.16191122387696C34.653419,62.015404223876956,25.521057,58.93792322387695,17.912342,52.75170122387695C10.303627,46.565471223876955,7.5620255,39.45778322387695,7.5620255,32.42299622387695C7.5620255,20.210889223876954,15.861469,9.716653123876952,27.345804,7.407398223876953L25.560171,12.161886223876953C19.468107,14.607497723876953,15.447983,20.718634223876954,15.447983,27.533813223876955Q15.447983,36.62928722387696,27.345804,44.517284223876956ZM53.152699,16.21150302387695Q49.332939,10.421684023876953,43.04882,7.462443131876953L58.327862,7.462443131876953L58.327862,25.217886223876953Q56.972454,22.001322223876954,53.152699,16.21150302387695ZM22.918554,100.74283222387696L0,100.74283222387696L11.751499,71.02178622387694Q9.8963861,84.17753222387695,13.061113,91.60780722387695Q16.225842,99.03806722387695,22.918554,100.74283222387696Z" fill-rule="evenodd" fill="url(#master_svg0_42_0719)" fill-opacity="1"/></g><g><path d="M28.34054183959961,17.75544Q50.85691983959961,69.992477,49.70262683959961,83.37339Q48.54833583959961,96.754295,38.85944083959961,101L81.0000038395996,101Q71.38901183959962,97.011604,65.72097783959961,82.086746Q60.05294583959961,67.161896,34.91646333959961,0L28.34054183959961,17.75544Z" fill="#333333" fill-opacity="1"/><path d="M28.34054183959961,17.75544Q50.85691983959961,69.992477,49.70262683959961,83.37339Q48.54833583959961,96.754295,38.85944083959961,101L81.0000038395996,101Q71.38901183959962,97.011604,65.72097783959961,82.086746Q60.05294583959961,67.161896,34.91646333959961,0L28.34054183959961,17.75544Z" fill="url(#master_svg1_42_0725)" fill-opacity="1"/></g></g></svg>