<svg xmlns="http://www.w3.org/2000/svg" xmlns:xlink="http://www.w3.org/1999/xlink" fill="none" version="1.1" width="121" height="40" viewBox="0 0 121 40"><g><g><g><g><path d="M3.3157835,15.594075231506348Q-2.8219559,22.99162173150635,2.4016755,32.812495731506345L4.491106,26.56284773150635Q3.3484263,21.397315731506346,7.4946418,16.35933783150635Q9.5677519,13.840346331506348,16.505335,10.874951331506349C16.50564,10.862855431506347,16.50631,10.856884931506347,16.507305,10.856830131506348C16.546337,10.854681931506349,17.085743,19.943849731506347,15.721796,25.54249473150635C15.022427,28.413231731506347,12.980051,28.48820973150635,11.804104,29.751442731506348C10.628159,31.01467373150635,10.449236,33.72124373150635,10.759387,33.45021573150635C11.379687,32.90815873150635,17.751038,32.84637373150635,19.770077,26.56284773150635C20.903347,23.03595673150635,20.912283,17.348005731506348,20.919222,12.930380331506347C20.924646,9.477537831506348,20.928852,6.800747871506347,21.467743,6.538460731506348Q9.4535227,8.196530931506349,3.3157835,15.594075231506348Z" fill="#FFFFFF" fill-opacity="1"/><path d="M3.3157835,15.594075231506348Q-2.8219559,22.99162173150635,2.4016755,32.812495731506345L4.491106,26.56284773150635Q3.3484263,21.397315731506346,7.4946418,16.35933783150635Q9.5677519,13.840346331506348,16.505335,10.874951331506349C16.50564,10.862855431506347,16.50631,10.856884931506347,16.507305,10.856830131506348C16.546337,10.854681931506349,17.085743,19.943849731506347,15.721796,25.54249473150635C15.022427,28.413231731506347,12.980051,28.48820973150635,11.804104,29.751442731506348C10.628159,31.01467373150635,10.449236,33.72124373150635,10.759387,33.45021573150635C11.379687,32.90815873150635,17.751038,32.84637373150635,19.770077,26.56284773150635C20.903347,23.03595673150635,20.912283,17.348005731506348,20.919222,12.930380331506347C20.924646,9.477537831506348,20.928852,6.800747871506347,21.467743,6.538460731506348Q9.4535227,8.196530931506349,3.3157835,15.594075231506348Z" fill="#FFFFFF" fill-opacity="1"/></g><g><path d="M7.806451797485352,34.65727427392578L11.59815669748535,33.25196627392578L14.441935997485352,14.855293273925781Q11.902847797485352,19.103136973925782,10.243976597485352,24.05362987392578Q8.585105597485352,29.004124273925783,7.806451797485352,34.65727427392578Z" fill="#FFFFFF" fill-opacity="1"/><path d="M7.806451797485352,34.65727427392578L11.59815669748535,33.25196627392578L14.441935997485352,14.855293273925781Q11.902847797485352,19.103136973925782,10.243976597485352,24.05362987392578Q8.585105597485352,29.004124273925783,7.806451797485352,34.65727427392578Z" fill="#FFFFFF" fill-opacity="1"/></g><g><path d="M1.1709678173065186,35.44935427392578L5.779474017306518,35.44935427392578Q6.356218617306519,29.72711627392578,8.18225221730652,25.08966527392578Q10.008287217306519,20.45221517392578,14.051613817306519,14.855293273925781Q5.964958917306519,22.147283573925783,4.269323617306519,26.62482027392578Q2.573688417306519,31.10235827392578,1.1709678173065186,35.44935427392578Z" fill="#FFFFFF" fill-opacity="1"/><path d="M1.1709678173065186,35.44935427392578L5.779474017306518,35.44935427392578Q6.356218617306519,29.72711627392578,8.18225221730652,25.08966527392578Q10.008287217306519,20.45221517392578,14.051613817306519,14.855293273925781Q5.964958917306519,22.147283573925783,4.269323617306519,26.62482027392578Q2.573688417306519,31.10235827392578,1.1709678173065186,35.44935427392578Z" fill="#FFFFFF" fill-opacity="1"/></g></g><g><g><path d="M1.2824087,16.196093L1.2824087,0.042251278L6.0172415,0L23.396137,0C29.418411,0.71022862,33.947365,5.6629305,33.947365,11.538459C33.947365,15.004905,32.370941,18.150137,29.841484,20.292437C32.795589,22.226664,34.738708,25.508137,34.738708,29.230768C34.738708,35.092747,29.920483,39.860809,23.923695,39.997009L23.923695,40L23.659916,40L0,40.000004L1.1709678,35.445545L23.396137,35.386024L23.396137,35.379272C23.484015,35.382835,23.57196,35.384613,23.659916,35.384613C27.156288,35.384613,29.99066,32.62944,29.99066,29.230768C29.99066,25.832094,27.156288,23.076921,23.659916,23.076921C23.57196,23.076921,23.484015,23.078707,23.396137,23.08227L23.396137,18.321663C26.770744,17.664244,29.199314,14.825549,29.199314,11.538461C29.199314,8.2513723,26.770744,5.4126768,23.396137,4.7552595L23.396137,4.7435894L5.9866085,4.7435894L6.0172415,10.938825Q4.5570869,11.924589,3.3624153,13.228346Q2.2115977,14.574344,1.2824087,16.196093Z" fill-rule="evenodd" fill="#FFFFFF" fill-opacity="1"/><path d="M1.2824087,16.196093L1.2824087,0.042251278L6.0172415,0L23.396137,0C29.418411,0.71022862,33.947365,5.6629305,33.947365,11.538459C33.947365,15.004905,32.370941,18.150137,29.841484,20.292437C32.795589,22.226664,34.738708,25.508137,34.738708,29.230768C34.738708,35.092747,29.920483,39.860809,23.923695,39.997009L23.923695,40L23.659916,40L0,40.000004L1.1709678,35.445545L23.396137,35.386024L23.396137,35.379272C23.484015,35.382835,23.57196,35.384613,23.659916,35.384613C27.156288,35.384613,29.99066,32.62944,29.99066,29.230768C29.99066,25.832094,27.156288,23.076921,23.659916,23.076921C23.57196,23.076921,23.484015,23.078707,23.396137,23.08227L23.396137,18.321663C26.770744,17.664244,29.199314,14.825549,29.199314,11.538461C29.199314,8.2513723,26.770744,5.4126768,23.396137,4.7552595L23.396137,4.7435894L5.9866085,4.7435894L6.0172415,10.938825Q4.5570869,11.924589,3.3624153,13.228346Q2.2115977,14.574344,1.2824087,16.196093Z" fill-rule="evenodd" fill="#FFFFFF" fill-opacity="1"/></g><g><g><path d="M3.3157835,15.59407475466919Q-2.8219559,22.99162125466919,2.4016755,32.81249525466919L4.491106,26.56284725466919Q3.3484263,21.397315254669188,7.4946418,16.35933735466919Q9.5677519,13.84034585466919,16.505335,10.87495085466919C16.50564,10.862854954669189,16.50631,10.856884454669189,16.507305,10.85682965466919C16.546337,10.85468145466919,17.085743,19.94384925466919,15.721796,25.54249425466919C15.022427,28.41323125466919,12.980051,28.48820925466919,11.804104,29.75144225466919C10.628159,31.01467325466919,10.449236,33.72124325466919,10.759387,33.45021525466919C11.379687,32.90815825466919,17.751038,32.84637325466919,19.770077,26.56284725466919C20.903347,23.03595625466919,20.912283,17.34800525466919,20.919222,12.930379854669189C20.924646,9.47753735466919,20.928852,6.800747394669189,21.467743,6.5384602546691895Q9.4535227,8.19653045466919,3.3157835,15.59407475466919Z" fill="#FFFFFF" fill-opacity="1"/><path d="M3.3157835,15.59407475466919Q-2.8219559,22.99162125466919,2.4016755,32.81249525466919L4.491106,26.56284725466919Q3.3484263,21.397315254669188,7.4946418,16.35933735466919Q9.5677519,13.84034585466919,16.505335,10.87495085466919C16.50564,10.862854954669189,16.50631,10.856884454669189,16.507305,10.85682965466919C16.546337,10.85468145466919,17.085743,19.94384925466919,15.721796,25.54249425466919C15.022427,28.41323125466919,12.980051,28.48820925466919,11.804104,29.75144225466919C10.628159,31.01467325466919,10.449236,33.72124325466919,10.759387,33.45021525466919C11.379687,32.90815825466919,17.751038,32.84637325466919,19.770077,26.56284725466919C20.903347,23.03595625466919,20.912283,17.34800525466919,20.919222,12.930379854669189C20.924646,9.47753735466919,20.928852,6.800747394669189,21.467743,6.5384602546691895Q9.4535227,8.19653045466919,3.3157835,15.59407475466919Z" fill="#FFFFFF" fill-opacity="1"/></g><g><path d="M7.806451797485352,34.65727379708862L11.59815669748535,33.25196579708862L14.441935997485352,14.855292797088623Q11.902847797485352,19.103136497088624,10.243976597485352,24.05362939708862Q8.585105597485352,29.004123797088624,7.806451797485352,34.65727379708862Z" fill="#FFFFFF" fill-opacity="1"/><path d="M7.806451797485352,34.65727379708862L11.59815669748535,33.25196579708862L14.441935997485352,14.855292797088623Q11.902847797485352,19.103136497088624,10.243976597485352,24.05362939708862Q8.585105597485352,29.004123797088624,7.806451797485352,34.65727379708862Z" fill="#FFFFFF" fill-opacity="1"/></g><g><path d="M1.1709678173065186,35.44935379708862L5.854839117306518,35.445546797088625Q6.356218617306519,29.727115797088622,8.18225221730652,25.089664797088624Q10.008287217306519,20.45221469708862,14.051613817306519,14.855292797088623Q5.964958917306519,22.147283097088625,4.269323617306519,26.624819797088623Q2.573688417306519,31.102357797088622,1.1709678173065186,35.44935379708862Z" fill="#FFFFFF" fill-opacity="1"/><path d="M1.1709678173065186,35.44935379708862L5.854839117306518,35.445546797088625Q6.356218617306519,29.727115797088622,8.18225221730652,25.089664797088624Q10.008287217306519,20.45221469708862,14.051613817306519,14.855292797088623Q5.964958917306519,22.147283097088625,4.269323617306519,26.624819797088623Q2.573688417306519,31.102357797088622,1.1709678173065186,35.44935379708862Z" fill="#FFFFFF" fill-opacity="1"/></g></g></g></g><g><g><path d="M50.05255750092773,14.697964710388183Q51.34684090092773,14.876485810388184,52.031174700927735,15.568258710388184Q52.71550820092774,16.26002971038818,52.71550820092774,17.375791710388185Q52.71550820092774,18.997364710388183,51.47329430092773,19.867659710388182Q50.23107910092774,20.737952710388186,47.91029500092773,20.737952710388186L43.74478530092773,20.737952710388186L43.74478530092773,8.955511110388183L47.80615760092773,8.955511110388183Q49.90378900092773,8.955511110388183,51.026989000927735,9.743982310388184Q52.15018940092774,10.532454510388185,52.15018940092774,11.990382210388184Q52.15018940092774,13.002006510388185,51.61462400092773,13.656586610388183Q51.079057700927734,14.311166810388183,50.05255750092773,14.608702610388184L50.05255750092773,14.697964710388183ZM45.99118520092773,10.993635210388184L45.99118520092773,13.671464010388183L47.53837440092774,13.671464010388183Q48.63925930092773,13.671464010388183,49.23433210092773,13.306981110388183Q49.82940530092773,12.942499210388185,49.82940530092773,12.273041710388185Q49.82940530092773,11.663092610388183,49.23433210092773,11.328364410388183Q48.63925930092773,10.993635210388184,47.53837440092774,10.993635210388184L45.99118520092773,10.993635210388184ZM47.62763550092774,18.684951710388184Q48.96654940092773,18.684951710388184,49.68807510092773,18.28327871038818Q50.40960120092773,17.881603710388184,50.40960120092773,17.137762710388184Q50.40960120092773,16.453429710388185,49.68807510092773,16.088946710388186Q48.96654940092773,15.724465710388184,47.62763550092774,15.724465710388184L45.99118520092773,15.724465710388184L45.99118520092773,18.684951710388184L47.62763550092774,18.684951710388184ZM57.13392320092773,8.955511110388183L57.13392320092773,18.684951710388184L62.608593200927736,18.684951710388184L62.608593200927736,20.737952710388186L54.88752320092773,20.737952710388186L54.88752320092773,8.955511110388183L57.13392320092773,8.955511110388183ZM68.73784420092774,18.833719710388184Q69.80897520092773,18.833719710388184,70.43380120092773,18.112194710388184Q71.05862820092773,17.390668710388184,71.05862820092773,16.155892710388184L71.05862820092773,8.955511110388183L73.31990420092774,8.955511110388183L73.31990420092774,16.26002971038818Q73.31990420092774,17.703081710388183,72.76202420092773,18.759336710388183Q72.20414320092773,19.815590710388186,71.17020420092774,20.38090971038818Q70.13626520092774,20.946228710388183,68.73784420092774,20.946228710388183Q67.33942220092774,20.946228710388183,66.31292120092773,20.38090971038818Q65.28642120092773,19.815590710388186,64.72854020092774,18.759336710388183Q64.17066020092773,17.703081710388183,64.17066020092773,16.26002971038818L64.17066020092773,8.955511110388183L66.41706120092773,8.955511110388183L66.41706120092773,16.096384710388186Q66.41706120092773,17.360914710388183,67.04188520092774,18.097317710388182Q67.66671420092774,18.833719710388184,68.73784420092774,18.833719710388184ZM78.06560920092772,15.739341710388183L78.06560920092772,18.684951710388184L83.58491120092773,18.684951710388184L83.58491120092773,20.737952710388186L75.81921020092773,20.737952710388186L75.81921020092773,8.955511110388183L83.40638720092772,8.955511110388183L83.40638720092772,10.993635210388184L78.06560920092772,10.993635210388184L78.06560920092772,13.686340310388184L83.10885220092774,13.686340310388184L83.10885220092774,15.739341710388183L78.06560920092772,15.739341710388183ZM89.72903820092773,8.955511110388183Q91.85642620092773,8.955511110388183,93.06888620092774,9.996888210388184Q94.28134520092773,11.038266210388183,94.28134520092773,12.882991810388184Q94.28134520092773,14.712841010388184,93.10607520092773,15.754217710388184Q91.93080920092774,16.795595710388184,89.86293020092774,16.795595710388184L87.89918920092774,16.795595710388184L87.89918920092774,20.737952710388186L85.65279020092774,20.737952710388186L85.65279020092774,8.955511110388183L89.72903820092773,8.955511110388183ZM89.41662620092774,14.742594710388184Q90.62164720092773,14.742594710388184,91.30598020092773,14.251659410388184Q91.99031420092774,13.760724110388184,91.99031420092774,12.882991810388184Q91.99031420092774,12.005259510388184,91.30598020092773,11.499447810388183Q90.62164720092773,10.993635210388184,89.41662620092774,10.993635210388184L87.89918920092774,10.993635210388184L87.89918920092774,14.742594710388184L89.41662620092774,14.742594710388184ZM98.58074520092774,8.955511110388183L98.58074520092774,20.737952710388186L96.33434720092774,20.737952710388186L96.33434720092774,8.955511110388183L98.58074520092774,8.955511110388183ZM103.32645020092774,20.737952710388186L101.08005120092773,20.737952710388186L101.08005120092773,8.955511110388183L103.17768520092773,8.955511110388183L108.17629620092774,16.527812710388183L108.26556020092774,16.527812710388183L108.26556020092774,8.955511110388183L110.51195920092773,8.955511110388183L110.51195920092773,20.737952710388186L108.50358220092774,20.737952710388186L103.41571420092774,13.150774510388183L103.32645020092774,13.150774510388183L103.32645020092774,20.737952710388186ZM115.25767120092773,15.739341710388183L115.25767120092773,18.684951710388184L120.77696620092773,18.684951710388184L120.77696620092773,20.737952710388186L113.01127220092773,20.737952710388186L113.01127220092773,8.955511110388183L120.59844620092774,8.955511110388183L120.59844620092774,10.993635210388184L115.25767120092773,10.993635210388184L115.25767120092773,13.686340310388184L120.30091520092773,13.686340310388184L120.30091520092773,15.739341710388183L115.25767120092773,15.739341710388183Z" fill="#FFFFFF" fill-opacity="1"/></g><g><path d="M46.425287566960144,28.62455340821533L45.285253166960146,28.62455340821533L45.285253166960146,32.13861560821533L44.339400566960144,32.13861560821533L44.339400566960144,28.62455340821533L43.19936609696014,28.62455340821533L43.19936609696014,27.79145140821533L46.425287566960144,27.79145140821533L46.425287566960144,28.62455340821533ZM51.580498566960145,30.178007108215333Q51.580498566960145,30.32207730821533,51.571102066960144,30.450487608215333Q51.561706466960146,30.57889840821533,51.549177966960144,30.647801408215333L49.36933266696015,30.78560780821533Q49.39438806696015,31.148915308215333,49.61362536696014,31.31804130821533Q49.83286276696015,31.48716740821533,50.28386576696015,31.48716740821533Q50.440463866960144,31.48716740821533,50.60332576696015,31.465243808215334Q50.76618756696014,31.443319808215332,50.916521866960146,31.412000208215332Q51.066856266960144,31.380680608215332,51.19526656696014,31.336833008215333Q51.32367696696014,31.292985908215332,51.40510836696014,31.249138308215333L51.40510836696014,31.963225808215334Q51.329941666960146,32.007073408215334,51.20153036696014,32.050920508215334Q51.07311996696014,32.09476800821533,50.90399446696014,32.12608770821533Q50.734867966960145,32.15740730821533,50.53129086696014,32.17933130821533Q50.32771286696014,32.20125480821533,50.108475566960145,32.20125480821533Q49.72011216696014,32.20125480821533,49.41318026696015,32.11982390821533Q49.106247766960145,32.03839300821533,48.89640606696015,31.83794740821533Q48.686564766960146,31.637501708215332,48.57381376696014,31.299249608215334Q48.461063266960146,30.960997608215333,48.461063266960146,30.447355708215333Q48.461063266960146,29.93371390821533,48.57381376696014,29.595462108215333Q48.686564766960146,29.25721000821533,48.899537966960146,29.056764408215333Q49.11251146696014,28.856318708215333,49.42570766696014,28.774887808215333Q49.73890386696014,28.69345660821533,50.13353146696014,28.69345660821533Q50.57200606696014,28.69345660821533,50.853882666960146,28.803075308215334Q51.13575926696014,28.91269420821533,51.298621066960145,29.110007808215332Q51.461483866960144,29.307321308215332,51.520991166960144,29.57980200821533Q51.580498566960145,29.85228300821533,51.580498566960145,30.178007108215333ZM50.753660066960144,30.046464708215332Q50.753660066960144,29.908658308215333,50.731736066960146,29.786511708215333Q50.709812566960146,29.66436500821533,50.64404096696015,29.573538308215333Q50.57826986696014,29.482711308215332,50.45612326696014,29.429467908215333Q50.33397666696014,29.376224508215333,50.13353146696014,29.376224508215333Q49.920557866960145,29.376224508215333,49.77961956696014,29.42320390821533Q49.63868126696014,29.470183408215334,49.55098616696014,29.564142208215333Q49.463291566960145,29.658101308215333,49.419443966960145,29.805303608215333Q49.375596366960146,29.952505608215333,49.36933266696015,30.15295120821533L50.753660066960144,30.046464708215332ZM55.74600776696015,32.20125480821533Q55.35137976696014,32.20125480821533,55.041315766960146,32.11982390821533Q54.73125176696014,32.03839300821533,54.515145766960146,31.83794740821533Q54.29904076696015,31.637501708215332,54.18629076696014,31.299249608215334Q54.073539766960145,30.960997608215333,54.073539766960145,30.447355708215333Q54.073539766960145,29.93371390821533,54.18629076696014,29.595462108215333Q54.29904076696015,29.25721000821533,54.515145766960146,29.056764408215333Q54.73125176696014,28.856318708215333,55.041315766960146,28.774887808215333Q55.35137976696014,28.69345660821533,55.74600776696015,28.69345660821533Q55.99656476696015,28.69345660821533,56.228329766960144,28.721644408215333Q56.460095766960144,28.749832108215333,56.61669376696015,28.79994340821533L56.61669376696015,29.564142208215333Q56.28470476696015,29.438863708215333,55.865022766960145,29.438863708215333Q55.639521766960144,29.438863708215333,55.47665876696014,29.485843208215332Q55.313796766960145,29.532822608215334,55.21044276696014,29.648705208215333Q55.107086766960144,29.764587908215333,55.05697576696014,29.95876960821533Q55.00686476696014,30.15295120821533,55.00686476696014,30.447355708215333Q55.00686476696014,30.741760208215332,55.05697576696014,30.93594170821533Q55.107086766960144,31.13012360821533,55.21357476696014,31.242874108215332Q55.32006076696014,31.35562510821533,55.486054766960144,31.40260460821533Q55.65204876696014,31.449584008215332,55.883813766960145,31.449584008215332Q56.084259766960145,31.449584008215332,56.27530976696014,31.42139620821533Q56.46635876696014,31.39320850821533,56.64801276696014,31.324305508215332L56.64801276696014,32.06971260821533Q56.57284676696014,32.10103220821533,56.46949076696014,32.12295580821533Q56.366136766960146,32.14487930821533,56.24398976696014,32.16367150821533Q56.12184276696014,32.18246320821533,55.99343276696014,32.19185880821533Q55.865022766960145,32.20125480821533,55.74600776696015,32.20125480821533ZM61.28331876696014,28.69345660821533Q61.59651476696014,28.69345660821533,61.812620766960144,28.765492008215332Q62.02872576696014,28.837527008215332,62.160267766960146,28.981597208215334Q62.29180976696014,29.12566760821533,62.34818576696014,29.335509108215334Q62.404560766960145,29.545350508215332,62.404560766960145,29.827227108215332L62.404560766960145,32.13861560821533L61.49629076696014,32.13861560821533L61.49629076696014,30.065256308215332Q61.49629076696014,29.720740508215332,61.38354176696014,29.576670208215333Q61.27079076696015,29.43260000821533,60.94506776696014,29.43260000821533Q60.663189766960144,29.43260000821533,60.48153576696014,29.53908660821533Q60.29988176696014,29.64557340821533,60.22471476696015,29.921186008215333L60.22471476696015,32.13861560821533L59.316444766960146,32.13861560821533L59.316444766960146,27.37803220821533L60.22471476696015,27.37803220821533L60.22471476696015,29.169515108215332Q60.362520766960145,28.931485908215333,60.63500276696014,28.81247140821533Q60.90748276696014,28.69345660821533,61.28331876696014,28.69345660821533ZM69.77093576696015,28.618289708215332L69.77093576696015,29.626781708215333L71.34944476696015,29.626781708215333L71.34944476696015,30.447355708215333L69.77093576696015,30.447355708215333L69.77093576696015,32.13861560821533L68.81881976696015,32.13861560821533L68.81881976696015,27.79145140821533L71.47472276696014,27.79145140821533L71.47472276696014,28.618289708215332L69.77093576696015,28.618289708215332ZM75.59638476696014,32.20125480821533Q75.20175776696014,32.20125480821533,74.89169376696015,32.11982390821533Q74.58162976696015,32.03839300821533,74.37178876696015,31.83794740821533Q74.16194576696014,31.637501708215332,74.04919476696014,31.299249608215334Q73.93644576696015,30.960997608215333,73.93644576696015,30.447355708215333Q73.93644576696015,29.93371390821533,74.04919476696014,29.595462108215333Q74.16194576696014,29.25721000821533,74.37178876696015,29.056764408215333Q74.58162976696015,28.856318708215333,74.89169376696015,28.774887808215333Q75.20175776696014,28.69345660821533,75.59638476696014,28.69345660821533Q75.99101176696014,28.69345660821533,76.29794576696014,28.774887808215333Q76.60487676696015,28.856318708215333,76.81471876696014,29.056764408215333Q77.02456176696015,29.25721000821533,77.13731276696015,29.595462108215333Q77.25005976696013,29.93371390821533,77.25005976696013,30.447355708215333Q77.25005976696013,30.960997608215333,77.13731276696015,31.299249608215334Q77.02456176696015,31.637501708215332,76.81471876696014,31.83794740821533Q76.60487676696015,32.03839300821533,76.29794576696014,32.11982390821533Q75.99101176696014,32.20125480821533,75.59638476696014,32.20125480821533ZM75.59638476696014,31.51222320821533Q75.80309576696014,31.51222320821533,75.94403376696015,31.462111508215333Q76.08497176696014,31.412000208215332,76.16953576696014,31.28985360821533Q76.25409576696015,31.167707408215332,76.28854976696014,30.960997608215333Q76.32300076696015,30.754288208215332,76.32300076696015,30.447355708215333Q76.32300076696015,30.140423308215333,76.28541876696013,29.93371390821533Q76.24783176696015,29.72700430821533,76.16327176696015,29.60172580821533Q76.07870776696015,29.47644730821533,75.94090176696014,29.42320390821533Q75.80309576696014,29.369960508215332,75.59638476696014,29.369960508215332Q75.38967376696014,29.369960508215332,75.24873576696015,29.42320390821533Q75.10779876696014,29.47644730821533,75.02323776696014,29.60172580821533Q74.93867376696014,29.72700430821533,74.90422176696015,29.93371390821533Q74.86977076696014,30.140423308215333,74.86977076696014,30.447355708215333Q74.86977076696014,30.754288208215332,74.90735376696014,30.960997608215333Q74.94493776696015,31.167707408215332,75.02950176696015,31.28985360821533Q75.11406176696013,31.412000208215332,75.25186776696015,31.462111508215333Q75.38967376696014,31.51222320821533,75.59638476696014,31.51222320821533ZM82.96902776696015,28.756095908215332L82.96902776696015,32.13861560821533L82.14845176696014,32.13861560821533L82.07955076696015,31.731460608215333Q81.93548076696015,31.97575380821533,81.67552876696014,32.088504308215335Q81.41557576696015,32.20125480821533,81.03974076696014,32.20125480821533Q80.72654276696014,32.20125480821533,80.51043576696014,32.12921950821533Q80.29433376696014,32.05718470821533,80.15965876696015,31.913114108215332Q80.02498176696014,31.76904390821533,79.96547576696014,31.55920270821533Q79.90596676696015,31.34936090821533,79.90596676696015,31.073748608215332L79.90596676696015,28.756095908215332L80.81423876696014,28.756095908215332L80.81423876696014,30.82945540821533Q80.81423876696014,31.16144320821533,80.92385776696014,31.31177760821533Q81.03347676696015,31.462111508215333,81.36546176696015,31.462111508215333Q81.62854676696014,31.462111508215333,81.80707076696015,31.35875700821533Q81.98559076696014,31.255402108215332,82.06702276696015,30.992317208215333L82.06702276696015,28.756095908215332L82.96902776696015,28.756095908215332ZM87.79225076696014,28.69345660821533Q88.10544876696014,28.69345660821533,88.32155476696013,28.765492008215332Q88.53765776696014,28.837527008215332,88.66920376696015,28.981597208215334Q88.80074576696015,29.12566760821533,88.85711976696015,29.335509108215334Q88.91349676696015,29.545350508215332,88.91349676696015,29.827227108215332L88.91349676696015,32.13861560821533L88.00522476696014,32.13861560821533L88.00522476696014,30.065256308215332Q88.00522476696014,29.896130308215334,87.98016976696015,29.773983708215333Q87.95511476696015,29.65183730821533,87.89560576696014,29.576670208215333Q87.83610076696014,29.50150300821533,87.72961276696014,29.46705150821533Q87.62312576696014,29.43260000821533,87.45400176696015,29.43260000821533Q87.17212576696014,29.43260000821533,86.99046976696015,29.532822608215334Q86.80881776696015,29.63304540821533,86.73364876696014,29.896130308215334L86.73364876696014,32.13861560821533L85.82538076696014,32.13861560821533L85.82538076696014,28.756095908215332L86.73364876696014,28.756095908215332L86.73364876696014,29.163251208215332Q86.87145476696014,28.92522190821533,87.14706676696014,28.809339308215332Q87.42268276696015,28.69345660821533,87.79225076696014,28.69345660821533ZM94.85169876696014,27.37803220821533L94.85169876696014,32.13861560821533L94.03112276696015,32.13861560821533L93.96221776696015,31.668821308215332Q93.86199876696014,31.90058660821533,93.62710076696015,32.050920508215334Q93.39220276696014,32.20125480821533,92.92867176696015,32.20125480821533Q92.51525376696014,32.20125480821533,92.25216976696015,32.07910820821533Q91.98908476696015,31.95696160821533,91.83874776696015,31.728328708215333Q91.68841476696014,31.499695308215333,91.63204076696015,31.17397120821533Q91.57566376696015,30.84824700821533,91.57566376696015,30.447355708215333Q91.57566376696015,30.084048008215333,91.63204076696015,29.764587908215333Q91.68841476696014,29.44512770821533,91.83874776696015,29.20709850821533Q91.98908476696015,28.969069508215334,92.25216976696015,28.83126310821533Q92.51525376696014,28.69345660821533,92.92867176696015,28.69345660821533Q93.39220276696014,28.69345660821533,93.62083676696014,28.828131208215332Q93.84947076696014,28.962805508215332,93.94969076696015,29.18830680821533L93.94969076696015,27.37803220821533L94.85169876696014,27.37803220821533ZM93.21681076696015,31.51222320821533Q93.44857676696014,31.51222320821533,93.59891376696015,31.443319808215332Q93.74924776696014,31.374416808215333,93.83693976696014,31.236610408215334Q93.92463576696014,31.098804008215332,93.95908676696014,30.901490208215332Q93.99354076696014,30.70417690821533,93.99354076696014,30.447355708215333Q93.99354076696014,30.203062508215332,93.95908676696014,30.005749008215332Q93.92463576696014,29.80843540821533,93.83693976696014,29.667497108215333Q93.74924776696014,29.526558908215332,93.59891376696015,29.448259808215333Q93.44857676696014,29.369960508215332,93.21681076696015,29.369960508215332Q92.97878576696014,29.369960508215332,92.83784376696013,29.45765570821533Q92.69690576696014,29.545350508215332,92.62487276696015,29.692552808215332Q92.55283676696014,29.839755108215332,92.53091276696014,30.033936708215332Q92.50898976696014,30.22811840821533,92.50898976696014,30.447355708215333Q92.50898976696014,30.679121008215333,92.53091276696014,30.876434808215333Q92.55283676696014,31.073748608215332,92.62800476696015,31.214686408215332Q92.70316976696014,31.35562510821533,92.84410776696015,31.43392420821533Q92.98504876696015,31.51222320821533,93.21681076696015,31.51222320821533ZM99.12369476696014,28.699720608215333Q99.54964376696014,28.699720608215333,99.84091476696014,28.77175570821533Q100.13218576696013,28.843791008215334,100.31070976696014,28.981597208215334Q100.48922976696014,29.119403608215332,100.56753076696015,29.32298110821533Q100.64582676696014,29.526558908215332,100.64582676696014,29.795907508215333L100.64582676696014,32.13861560821533L99.83151876696014,32.13861560821533L99.74382276696014,31.74398850821533Q99.63733576696015,31.93190620821533,99.36172376696015,32.066580308215336Q99.08611176696014,32.20125480821533,98.66642676696014,32.20125480821533Q98.09641176696014,32.20125480821533,97.80200476696015,31.947566008215333Q97.50760176696014,31.69387670821533,97.50760176696014,31.167707408215332Q97.50760176696014,30.57889840821533,97.86151376696014,30.34086890821533Q98.21542676696015,30.102839908215334,98.89819276696014,30.102839908215334L99.73755876696015,30.102839908215334L99.73755876696015,30.015145108215332Q99.73755876696015,29.86481070821533,99.70937276696014,29.75832390821533Q99.68118576696014,29.65183730821533,99.59975276696014,29.586066008215333Q99.51832076696014,29.520294908215334,99.38051476696015,29.48897530821533Q99.24270876696013,29.45765570821533,99.01720676696014,29.45765570821533Q98.83555476696014,29.45765570821533,98.65389876696014,29.473315508215332Q98.47224676696015,29.48897530821533,98.29685476696014,29.520294908215334L98.29685476696014,28.749832108215333Q98.49103776696015,28.724776308215333,98.71653976696015,28.712248608215333Q98.94204176696014,28.699720608215333,99.12369476696014,28.699720608215333ZM98.89819276696014,31.50595900821533Q99.21139076696014,31.50595900821533,99.43062876696015,31.39634040821533Q99.64986276696015,31.28672170821533,99.73755876696015,31.111331908215334L99.73755876696015,30.71670440821533L99.03599776696015,30.71670440821533Q98.69774876696015,30.71670440821533,98.55054376696015,30.798135708215334Q98.40334176696015,30.879566708215332,98.40334176696015,31.136387808215332Q98.40334176696015,31.336833008215333,98.51922476696015,31.42139620821533Q98.63510776696015,31.50595900821533,98.89819276696014,31.50595900821533ZM104.49814476696014,29.470183408215334L104.49814476696014,30.979789708215332Q104.49814476696014,31.13012360821533,104.51380476696013,31.224082508215332Q104.52946376696013,31.31804130821533,104.57330976696014,31.37128500821533Q104.61715576696014,31.424528108215334,104.69232476696014,31.44645170821533Q104.76749276696015,31.468375708215333,104.88650776696014,31.468375708215333Q105.04936876696014,31.468375708215333,105.15585576696014,31.443319808215332L105.15585576696014,32.14487930821533Q105.05563276696014,32.15740730821533,104.94288176696014,32.16680340821533Q104.83013076696014,32.176199008215335,104.71737976696014,32.176199008215335Q104.40418476696014,32.176199008215335,104.18807876696015,32.12608770821533Q103.97197276696014,32.07597640821533,103.84042976696014,31.950697908215332Q103.70888776696015,31.825419408215332,103.64938276696014,31.606182108215332Q103.58987276696014,31.386944808215333,103.58987276696014,31.054956408215332L103.58987276696014,29.470183408215334L103.14513676696015,29.470183408215334L103.14513676696015,28.756095908215332L103.58987276696014,28.756095908215332L103.58987276696014,27.95431370821533L104.49814476696014,27.95431370821533L104.49814476696014,28.756095908215332L105.19970176696015,28.756095908215332L105.19970176696015,29.470183408215334L104.49814476696014,29.470183408215334ZM108.14375176696015,28.286301608215332Q107.99341476696014,28.286301608215332,107.89319476696015,28.27064180821533Q107.79296776696015,28.254982008215332,107.73659376696014,28.204870508215333Q107.68022076696015,28.15475920821533,107.65829376696014,28.060800108215332Q107.63637476696015,27.96684120821533,107.63637476696015,27.803979408215334Q107.63637476696015,27.647381308215333,107.65829376696014,27.553422408215333Q107.68022076696015,27.459463608215334,107.73659376696014,27.409351808215334Q107.79296776696015,27.359240508215333,107.89319476696015,27.34671260821533Q107.99341476696014,27.334185108215333,108.14375176696015,27.334185108215333Q108.30034576696015,27.334185108215333,108.39743676696014,27.34671260821533Q108.49452876696014,27.359240508215333,108.55090176696014,27.409351808215334Q108.60727576696014,27.459463608215334,108.62920276696015,27.553422408215333Q108.65112976696014,27.647381308215333,108.65112976696014,27.803979408215334Q108.65112976696014,27.96684120821533,108.62920276696015,28.060800108215332Q108.60727576696014,28.15475920821533,108.55090176696014,28.204870508215333Q108.49452876696014,28.254982008215332,108.39743676696014,28.27064180821533Q108.30034576696015,28.286301608215332,108.14375176696015,28.286301608215332ZM107.68648376696014,28.756095908215332L108.59474876696014,28.756095908215332L108.59474876696014,32.13861560821533L107.68648376696014,32.13861560821533L107.68648376696014,28.756095908215332ZM112.92312476696014,32.20125480821533Q112.52849476696015,32.20125480821533,112.21842876696014,32.11982390821533Q111.90836976696015,32.03839300821533,111.69852376696015,31.83794740821533Q111.48868476696015,31.637501708215332,111.37593776696015,31.299249608215334Q111.26318276696014,30.960997608215333,111.26318276696014,30.447355708215333Q111.26318276696014,29.93371390821533,111.37593776696015,29.595462108215333Q111.48868476696015,29.25721000821533,111.69852376696015,29.056764408215333Q111.90836976696015,28.856318708215333,112.21842876696014,28.774887808215333Q112.52849476696015,28.69345660821533,112.92312476696014,28.69345660821533Q113.31774776696014,28.69345660821533,113.62468576696014,28.774887808215333Q113.93161676696015,28.856318708215333,114.14145576696015,29.056764408215333Q114.35130176696015,29.25721000821533,114.46404876696015,29.595462108215333Q114.57679676696014,29.93371390821533,114.57679676696014,30.447355708215333Q114.57679676696014,30.960997608215333,114.46404876696015,31.299249608215334Q114.35130176696015,31.637501708215332,114.14145576696015,31.83794740821533Q113.93161676696015,32.03839300821533,113.62468576696014,32.11982390821533Q113.31774776696014,32.20125480821533,112.92312476696014,32.20125480821533ZM112.92312476696014,31.51222320821533Q113.12983576696014,31.51222320821533,113.27077376696015,31.462111508215333Q113.41171176696014,31.412000208215332,113.49627576696014,31.28985360821533Q113.58083276696014,31.167707408215332,113.61528676696014,30.960997608215333Q113.64974076696015,30.754288208215332,113.64974076696015,30.447355708215333Q113.64974076696015,30.140423308215333,113.61215876696015,29.93371390821533Q113.57456876696014,29.72700430821533,113.49001176696014,29.60172580821533Q113.40544776696015,29.47644730821533,113.26763776696015,29.42320390821533Q113.12983576696014,29.369960508215332,112.92312476696014,29.369960508215332Q112.71641476696014,29.369960508215332,112.57547676696015,29.42320390821533Q112.43453876696015,29.47644730821533,112.34997476696014,29.60172580821533Q112.26541076696014,29.72700430821533,112.23096376696014,29.93371390821533Q112.19650876696015,30.140423308215333,112.19650876696015,30.447355708215333Q112.19650876696015,30.754288208215332,112.23409176696015,30.960997608215333Q112.27167376696015,31.167707408215332,112.35623776696015,31.28985360821533Q112.44080276696015,31.412000208215332,112.57860476696014,31.462111508215333Q112.71641476696014,31.51222320821533,112.92312476696014,31.51222320821533ZM119.22463876696014,28.69345660821533Q119.53783276696015,28.69345660821533,119.75393576696014,28.765492008215332Q119.97004576696014,28.837527008215332,120.10158476696014,28.981597208215334Q120.23313076696014,29.12566760821533,120.28950376696014,29.335509108215334Q120.34587776696014,29.545350508215332,120.34587776696014,29.827227108215332L120.34587776696014,32.13861560821533L119.43761376696014,32.13861560821533L119.43761376696014,30.065256308215332Q119.43761376696014,29.896130308215334,119.41255076696014,29.773983708215333Q119.38749576696014,29.65183730821533,119.32799376696015,29.576670208215333Q119.26848476696014,29.50150300821533,119.16200176696015,29.46705150821533Q119.05551076696014,29.43260000821533,118.88638176696014,29.43260000821533Q118.60450676696014,29.43260000821533,118.42285776696015,29.532822608215334Q118.24120176696015,29.63304540821533,118.16602976696015,29.896130308215334L118.16602976696015,32.13861560821533L117.25776576696015,32.13861560821533L117.25776576696015,28.756095908215332L118.16602976696015,28.756095908215332L118.16602976696015,29.163251208215332Q118.30383976696014,28.92522190821533,118.57945176696015,28.809339308215332Q118.85506376696014,28.69345660821533,119.22463876696014,28.69345660821533Z" fill="#FFFFFF" fill-opacity="1"/></g></g></g></svg>