<svg xmlns="http://www.w3.org/2000/svg" xmlns:xlink="http://www.w3.org/1999/xlink" fill="none" version="1.1" width="102" height="30" viewBox="0 0 102 30"><defs><linearGradient x1="0.5" y1="0" x2="0.5" y2="1" id="master_svg0_21_00380"><stop offset="0.7142857182770967%" stop-color="#0783DC" stop-opacity="1"/><stop offset="100%" stop-color="#21BCDB" stop-opacity="1"/></linearGradient><linearGradient x1="0.5" y1="0" x2="0.5" y2="1" id="master_svg1_21_00374"><stop offset="0%" stop-color="#9FCA1F" stop-opacity="1"/><stop offset="100%" stop-color="#28B35B" stop-opacity="1"/></linearGradient></defs><g><g><g><path d="M8.0848465,13.222956247009277L12.508902,15.439520247009277Q13.169327,17.42677924700928,13.770422,19.414048247009276Q14.371511,21.401313247009277,14.91326,23.388581247009277Q14.335286,21.477744247009277,12.290322,19.949082247009276C10.245359,18.420417247009276,7.5453563,17.50631424700928,5.2958231,15.668822247009278C3.0462902,13.831327247009277,2.2357292,11.720133747009278,2.2357292,9.630592347009276C2.2357292,6.003234347009277,4.6894784,2.8861345670092775,8.0848465,2.2002172470092773L7.5569205,3.612441447009277C5.7557883,4.338860747009278,4.5672297,6.1540498470092775,4.5672297,8.178360947009278Q4.5672297,10.879985847009277,8.0848465,13.222956247009277ZM15.714712,4.815297847009278Q14.58539,3.0955497070092775,12.727478,2.2165672200092774L17.244759,2.2165672200092774L17.244759,7.490461347009277Q16.84403,6.535046547009277,15.714712,4.815297847009278ZM6.7759213,29.923611247009276L0,29.923611247009276L3.4743567,21.09557824700928Q2.9258881,25.00322824700928,3.861547,27.210240247009278Q4.797205,29.417248247009276,6.7759213,29.923611247009276Z" fill-rule="evenodd" fill="#FFFFFF" fill-opacity="1"/><path d="M8.0848465,13.222956247009277L12.508902,15.439520247009277Q13.169327,17.42677924700928,13.770422,19.414048247009276Q14.371511,21.401313247009277,14.91326,23.388581247009277Q14.335286,21.477744247009277,12.290322,19.949082247009276C10.245359,18.420417247009276,7.5453563,17.50631424700928,5.2958231,15.668822247009278C3.0462902,13.831327247009277,2.2357292,11.720133747009278,2.2357292,9.630592347009276C2.2357292,6.003234347009277,4.6894784,2.8861345670092775,8.0848465,2.2002172470092773L7.5569205,3.612441447009277C5.7557883,4.338860747009278,4.5672297,6.1540498470092775,4.5672297,8.178360947009278Q4.5672297,10.879985847009277,8.0848465,13.222956247009277ZM15.714712,4.815297847009278Q14.58539,3.0955497070092775,12.727478,2.2165672200092774L17.244759,2.2165672200092774L17.244759,7.490461347009277Q16.84403,6.535046547009277,15.714712,4.815297847009278ZM6.7759213,29.923611247009276L0,29.923611247009276L3.4743567,21.09557824700928Q2.9258881,25.00322824700928,3.861547,27.210240247009278Q4.797205,29.417248247009276,6.7759213,29.923611247009276Z" fill-rule="evenodd" fill="url(#master_svg0_21_00380)" fill-opacity="1"/></g><g><path d="M8.37894344329834,5.2738929Q15.03595924329834,20.789845,14.69469024329834,24.764376Q14.353421243298339,28.738899,11.48887894329834,29.999998L23.94782844329834,29.999998Q21.10631644329834,28.815327,19.43055044329834,24.382204Q17.754784543298342,19.949078,10.32312884329834,0L8.37894344329834,5.2738929Z" fill="#FFFFFF" fill-opacity="1"/><path d="M8.37894344329834,5.2738929Q15.03595924329834,20.789845,14.69469024329834,24.764376Q14.353421243298339,28.738899,11.48887894329834,29.999998L23.94782844329834,29.999998Q21.10631644329834,28.815327,19.43055044329834,24.382204Q17.754784543298342,19.949078,10.32312884329834,0L8.37894344329834,5.2738929Z" fill="url(#master_svg1_21_00374)" fill-opacity="1"/></g></g><g><path d="M47.43620445397949,25.18114426168823L44.33010945397949,25.18114426168823L42.233492453979494,19.184928261688235L35.06358245397949,19.184928261688235L32.96696665397949,25.18114426168823L29.860868453979492,25.18114426168823L37.13431455397949,5.115883891688233L40.162760453979494,5.115883891688233L47.43620445397949,25.18114426168823ZM38.55794235397949,9.191234161688232L36.047180653979495,16.407461261688233L41.24989545397949,16.407461261688233L38.71324725397949,9.191234161688232L38.55794235397949,9.191234161688232ZM54.16608245397949,16.173842261688232L54.16608245397949,22.455596261688232L63.97617945397949,22.455596261688232L63.97617945397949,25.18114426168823L51.24117245397949,25.18114426168823L51.24117245397949,5.115883891688233L63.639680453979494,5.115883891688233L63.639680453979494,7.8414358616882325L54.16608245397949,7.8414358616882325L54.16608245397949,13.474245561688232L63.12200745397949,13.474245561688232L63.12200745397949,16.173842261688232L54.16608245397949,16.173842261688232ZM74.7439824539795,25.54455526168823Q72.28499045397949,25.54455526168823,70.34367945397949,24.402415261688233Q68.4023724539795,23.260280261688234,67.3152294539795,21.23558426168823L69.85187745397948,19.85983026168823Q70.6025254539795,21.31345726168823,71.8708474539795,22.066230261688233Q73.1391654539795,22.81900026168823,74.76986845397948,22.81900026168823Q76.55587945397949,22.81900026168823,77.69478045397949,22.001334261688232Q78.83368445397949,21.183669261688234,78.83368445397949,19.88578626168823Q78.83368445397949,19.029184261688233,78.3807084539795,18.419180261688233Q77.92774045397948,17.809173261688233,76.95707845397949,17.34193726168823Q75.98643345397949,16.87469926168823,74.2521874539795,16.38150326168823Q72.25910745397948,15.810435261688232,70.9778384539795,15.239366261688232Q69.69657345397948,14.668299161688232,68.7906284539795,13.526161661688233Q67.8846874539795,12.384025561688233,67.8846874539795,10.515073261688233Q67.8846874539795,8.853785061688232,68.77768945397949,7.542923261688232Q69.6706944539795,6.232061961688233,71.26256345397948,5.492269161688233Q72.8544364539795,4.752475261688232,74.8734074539795,4.752475261688232Q79.5066704539795,4.752475261688232,81.7327094539795,8.672080061688233L79.32547945397948,10.125709061688234Q78.52307745397948,8.853785061688232,77.3712294539795,8.165906461688232Q76.2193854539795,7.478028561688232,74.82163845397949,7.478028561688232Q73.7344994539795,7.478028561688232,72.82855445397949,7.854414961688232Q71.92261745397948,8.230800161688233,71.3919884539795,8.879741661688232Q70.86136445397949,9.528683161688232,70.86136445397949,10.307412661688232Q70.86136445397949,11.345719361688232,71.4308144539795,11.994660361688233Q72.00026845397949,12.643601461688233,72.93208845397949,13.019986661688232Q73.8639244539795,13.396373261688233,75.49462745397949,13.837652661688232Q77.41005145397949,14.356806261688233,78.73015045397949,14.979789261688232Q80.05023745397949,15.602773261688233,80.94324345397949,16.770868261688232Q81.83624045397949,17.938963261688233,81.83624045397949,19.755997261688233Q81.83624045397949,21.52111626168823,80.9561824539795,22.831979261688232Q80.07612045397948,24.142839261688234,78.4713004539795,24.843698261688232Q76.86648745397949,25.54455526168823,74.7439824539795,25.54455526168823ZM101.99999845397949,21.624948261688232Q100.91286245397949,23.467942261688233,99.08803345397949,24.50624826168823Q97.26319645397949,25.54455526168823,94.9595084539795,25.54455526168823Q92.2675534539795,25.54455526168823,90.1968254539795,24.22071626168823Q88.1260964539795,22.89687326168823,86.98718845397948,20.52174926168823Q85.8482874539795,18.14662426168823,85.8482874539795,15.057663261688232Q85.8482874539795,12.020617961688233,87.00013145397949,9.671450161688233Q88.15197545397949,7.3222832616882325,90.23564345397949,6.037379761688232Q92.31931845397949,4.752475261688232,95.0371604539795,4.752475261688232Q97.3408414539795,4.752475261688232,99.1397914539795,5.8037596616882325Q100.93874145397949,6.855045361688232,101.97411145397949,8.672080061688233L99.51511145397949,10.099751461688232Q98.8162444539795,8.905699261688232,97.56086545397949,8.217822361688231Q96.3054864539795,7.529944461688233,94.9336224539795,7.529944461688233Q93.1476114539795,7.529944461688233,91.7757514539795,8.477398361688232Q90.40389445397949,9.424851861688232,89.64031745397949,11.125078661688232Q88.87673345397948,12.825304461688232,88.87673345397948,15.057663261688232Q88.87673345397948,17.31598026168823,89.64031745397949,19.081100261688235Q90.40389445397949,20.84621726168823,91.7757514539795,21.81963326168823Q93.1476114539795,22.793040261688233,94.9336224539795,22.793040261688233Q96.27959245397949,22.793040261688233,97.49615245397949,22.09218726168823Q98.71271345397949,21.391330261688232,99.5409984539795,20.17131726168823L101.99999845397949,21.624948261688232Z" fill="#FFFFFF" fill-opacity="1"/></g></g></svg>